<svg xmlns="http://www.w3.org/2000/svg" viewBox="0 0 80 22"><g><path d="M5.67,21.63H0V0.37h4.38c3.17,0,4.49,0.23,5.76,1.04c1.53,0.98,2.42,2.64,2.42,4.63s-0.66,3.11-2.36,4
		c2.71,1.12,3.63,2.73,3.63,5.26C13.82,19.18,11.14,21.63,5.67,21.63 M5.56,4.23H3.95v4.34h1.27c2.39,0,3.4-0.66,3.4-2.19
		C8.61,4.92,7.6,4.23,5.56,4.23 M5.82,12.42H3.95v5.43H5.9c2.76,0,3.95-0.81,3.95-2.64C9.85,13.32,8.55,12.42,5.82,12.42"/><path d="M33.14,20.45c-1.73,0.86-3.66,1.18-6.88,1.18H21.3V0.37h4.87c3.34,0,5.88,0.52,7.55,1.52c2.97,1.78,4.64,5.12,4.64,9.14
		C38.35,15.33,36.42,18.84,33.14,20.45 M31.12,5c-1.24-0.63-2.59-0.86-5.1-0.86h-0.78v13.72h0.86c2.36,0,4-0.29,5.18-0.95
		c1.9-1.04,3.08-3.31,3.08-5.87C34.38,8.31,33.14,6.04,31.12,5"/><path d="M50.84,22c-6.25,0-11.2-4.86-11.2-10.99C39.64,4.8,44.54,0,50.87,0c6.08,0,10.94,4.92,10.94,10.99
		C61.82,17.2,57.04,22,50.84,22 M50.82,3.8c-4.09,0-7.2,3.11-7.2,7.22c0,4.03,3.17,7.19,7.2,7.19c4.03,0,7.03-3.08,7.03-7.16
		C57.84,6.96,54.76,3.8,50.82,3.8"/><polygon points="73.5,4.14 73.5,21.63 69.55,21.63 69.55,4.14 63.05,4.14 63.05,0.37 80,0.37 80,4.14 	"/></g></svg>